<svg style="position: absolute; width: 0; height: 0; overflow: hidden;" aria-hidden="true" version="1.1" xmlns="http://www.w3.org/2000/svg" xmlns:xlink="http://www.w3.org/1999/xlink">
    <style>
        .default-palette, .palette0 {color: currentColor;
            --color0: #2e2f42;
            --color1: #fff;
            --color2: #f4f4fd;
        }
    </style>
    <defs>
        <symbol id="okay" viewBox="0 0 10 8" fill="none">
            <path fill="var(--color2, #f4f4fd)" d="M8.4456 0.2551C8.6184 0.0897 8.8483-18e-4 9.0869 0 9.3255 18e-4 9.5541 0.0968 9.7244 0.2648c0.1703 0.168 0.269 0.396 0.2753 0.6357 63e-4 0.2398-0.0803 0.4727-0.2415 0.6495L4.8636 7.7044c-0.0842 0.0911-0.1858 0.1642-0.2987 0.215C4.452 7.9702 4.33 7.9975 4.2064 7.9998c-0.1237 23e-4-0.2466-0.0205-0.3613-0.067C3.7304 7.8863 3.6262 7.817 3.5387 7.729L0.2928 4.4656C0.2024 4.381 0.1299 4.2788 0.0796 4.1654 0.0294 4.0519 23e-4 3.9294 1e-4 3.8052-2e-3 3.681 0.0207 3.5577 0.067 3.4425 0.1132 3.3273 0.1821 3.2227 0.2695 3.1348 0.3568 3.047 0.4609 2.9778 0.5755 2.9312 0.69 2.8847 0.8127 2.8619 0.9363 2.8641 1.0598 2.8662 1.1816 2.8934 1.2945 2.944 1.4073 2.9945 1.5089 3.0674 1.5932 3.1583l2.5687 2.5814 4.2604-5.4575c76e-4-95e-4 0.0158-0.0186 0.0245-0.0271z" />
        </symbol>
        <symbol id="close" viewBox="0 0 8 8" fill="none">
            <path fill="var(--color0, #2e2f42)" d="M8 0.8057 7.1943 0 4 3.1943 0.8057 0 0 0.8057 3.1943 4 0 7.1943 0.8057 8 4 4.8057 7.1943 8 8 7.1943 4.8057 4z" />
            <defs>
                <clipPath id="clip0_297024_946">
                    <rect fill="#fff" width="8" height="8" />
                </clipPath>
            </defs>
        </symbol>
        <symbol id="phone" viewBox="0 0 13 13" fill="none">
            <path fill="var(--color0, #2e2f42)" d="M11.7263 8.8651 9.8881 8.6553C9.4467 8.6046 9.0125 8.7566 8.7013 9.0678l-1.3316 1.3315c-2.048-1.0421-3.7269-2.7138-4.769-4.769l1.3388-1.3389C4.2507 3.9803 4.4026 3.5461 4.352 3.1046L4.1421 1.2809C4.0553 0.55 3.4401 0 2.702 0H1.45C0.6323 0-0.048 0.6803 27e-4 1.498 0.3862 7.6783 5.3289 12.6138 11.5019 12.9973c0.8178 0.0507 1.498-0.6296 1.498-1.4473v-1.252c73e-4-0.7309-0.5427-1.346-1.2736-1.4329z" />
        </symbol>
        <symbol id="name" viewBox="0 0 18 18" fill="none">
            <path fill="var(--color0, #2e2f42)" d="M9 9c1.6575 0 3-1.3425 3-3s-1.3425-3-3-3-3 1.3425-3 3 1.3425 3 3 3zM9 10.5c-2.0025 0-6 1.005-6 3v0.75C3 14.6625 3.3375 15 3.75 15h10.5c0.4125 0 0.75-0.3375 0.75-0.75V13.5c0-1.995-3.9975-3-6-3z" />
            <defs>
                <clipPath id="clip0_1027805_87">
                    <rect fill="#fff" width="18" height="18" />
                </clipPath>
            </defs>
        </symbol>
        <symbol id="icon-send" viewBox="0 0 24 20" fill="none">
            <path fill="var(--color1, #fff)" d="M24 0 0 11.25l7.6699 2.3672L19.5 4.375 10.5017 14.4913l73e-4 23e-4-9e-3-23e-4V20l4.3013-4.1817 5.4488 1.6817z" />
        </symbol>
        <symbol id="email" viewBox="0 0 15 12" fill="none">
            <path fill="var(--color0, #2e2f42)" d="M13.5 0h-12C0.675 0 75e-4 0.675 75e-4 1.5L0 10.5C0 11.325 0.675 12 1.5 12h12c0.825 0 1.5-0.675 1.5-1.5v-9C15 0.675 14.325 0 13.5 0zM13.2 3.1875 7.8975 6.5025c-0.24 0.15-0.555 0.15-0.795 0L1.8 3.1875c-0.1875-0.12-0.3-0.3225-0.3-0.54 0-0.5025 0.5475-0.8025 0.975-0.54L7.5 5.25l5.025-3.1425C12.9525 1.845 13.5 2.145 13.5 2.6475c0 0.2175-0.1125 0.42-0.3 0.54z" />
        </symbol>
        <symbol id="checkbox" viewBox="0 0 16 16" fill="none">
            <rect stroke="var(--color0, #2e2f42)" stroke-opacity="0.4" width="15" height="15" rx="1.5" x="0.5" y="0.5" />
        </symbol>
    </defs>
</svg>